<!DOCTYPE svg PUBLIC "-//W3C//DTD SVG 1.1//EN" "http://www.w3.org/Graphics/SVG/1.1/DTD/svg11.dtd">
<!-- Uploaded to: SVG Repo, www.svgrepo.com, Transformed by: SVG Repo Mixer Tools -->
<svg fill="#ffffff" width="40px" height="40px" viewBox="0 0 24 24" xmlns="http://www.w3.org/2000/svg">
<g id="SVGRepo_bgCarrier" stroke-width="0"/>
<g id="SVGRepo_tracerCarrier" stroke-linecap="round" stroke-linejoin="round"/>
<g id="SVGRepo_iconCarrier"> <path d="M12.6128994,2.20970461 L12.7071068,2.29289322 L15.415,5 L18,5 C18.5128358,5 18.9355072,5.38604019 18.9932723,5.88337887 L19,6 L19,8.585 L21.7071068,11.2928932 C22.0675907,11.6533772 22.0953203,12.2206082 21.7902954,12.6128994 L21.7071068,12.7071068 L19,15.414 L19,18 C19,18.5128358 18.6139598,18.9355072 18.1166211,18.9932723 L18,19 L15.414,19 L12.7071068,21.7071068 C12.3466228,22.0675907 11.7793918,22.0953203 11.3871006,21.7902954 L11.2928932,21.7071068 L8.585,19 L6,19 C5.48714016,19 5.04049284,18.6139598 5.00672773,18.1166211 L5,18 L5,15.415 L2.29289322,12.7071068 C1.93240926,12.3466228 1.90467972,11.7793918 2.20970461,11.3871006 L2.29289322,11.2928932 L5,8.584 L5,6 C5,5.48714016 5.38604019,5.04049284 5.88337887,5.00672773 L6,5 L8.584,5 L11.2928932,2.29289322 C11.6233369,1.96244959 12.1275055,1.91161211 12.5114029,2.14038077 L12.6128994,2.20970461 Z M12,7 C9.23857625,7 7,9.23857625 7,12 C7,14.7614237 9.23857625,17 12,17 C14.7614237,17 17,14.7614237 17,12 C17,9.23857625 14.7614237,7 12,7 Z"/> </g>
</svg>
